<svg width="41" height="41" viewBox="0 0 41 41" fill="none" xmlns="http://www.w3.org/2000/svg">
<path d="M34.6485 6.352C26.8448 -1.45002 14.1539 -1.45002 6.35022 6.352C-1.45007 14.154 -1.45007 26.8482 6.35022 34.6503C10.2521 38.5504 15.3761 40.4996 20.5002 40.4996C25.6243 40.4996 30.7467 38.5504 34.6485 34.6503C42.4505 26.8483 42.4505 14.154 34.6485 6.352ZM28.7524 26.3964C29.4043 27.0483 29.4043 28.1022 28.7524 28.7541C28.4272 29.0793 28.0004 29.2427 27.5735 29.2427C27.1466 29.2427 26.7197 29.0793 26.3945 28.7541L20.5001 22.858L14.6074 28.7524C14.2806 29.0776 13.8537 29.241 13.4285 29.241C13.0016 29.241 12.5747 29.0776 12.2496 28.7524C11.5976 28.1005 11.5976 27.045 12.2496 26.3947L18.1423 20.5003L12.2479 14.6059C11.596 13.9539 11.596 12.8984 12.2479 12.2481C12.8982 11.5962 13.9537 11.5962 14.6057 12.2481L20.5001 18.1425L26.3945 12.2481C27.0464 11.5962 28.1003 11.5962 28.7522 12.2481C29.4042 12.8984 29.4042 13.9539 28.7522 14.6059L22.8578 20.5003L28.7524 26.3964Z" fill="#A40000"/>
</svg>
