<svg width="20" height="21" viewBox="0 0 20 21" fill="none" xmlns="http://www.w3.org/2000/svg">
<path d="M10.0054 21C8.83896 21 7.68327 20.6874 6.77369 20.072L2.17228 16.9363C0.95238 16.1059 0 14.3769 0 12.9898V5.73171C0 4.22735 1.20922 2.6253 2.76085 2.0978L8.10059 0.271078C9.15998 -0.0903593 10.8293 -0.0903593 11.8887 0.271078L17.2392 2.0978C18.7908 2.6253 20 4.22735 20 5.73171V12.9898C20 14.3769 19.0476 16.1059 17.8277 16.9363L13.2263 20.072C12.3275 20.6874 11.1718 21 10.0054 21ZM8.66774 1.63867L3.328 3.46539C2.40772 3.77799 1.60514 4.833 1.60514 5.73171V12.9898C1.60514 13.9178 2.32211 15.217 3.12468 15.764L7.72606 18.8997C8.95666 19.7398 11.0433 19.7398 12.2739 18.8997L16.8754 15.764C17.6886 15.2072 18.3949 13.908 18.3949 12.9898V5.73171C18.3949 4.84277 17.5923 3.78776 16.672 3.46539L11.3323 1.63867C10.626 1.39446 9.3847 1.39446 8.66774 1.63867Z" fill="#0F0F0F"/>
<path d="M10.0697 9.86506C10.0498 9.86506 10.0299 9.86506 9.99998 9.86506C8.55576 9.82522 7.5 8.71964 7.5 7.37502C7.5 6.00051 8.62548 4.875 9.99998 4.875C11.3745 4.875 12.5 6.00051 12.5 7.37502C12.49 8.7296 11.4342 9.8252 10.0896 9.875C10.0797 9.86504 10.0797 9.86506 10.0697 9.86506ZM9.99998 6.36903C9.44221 6.36903 8.99403 6.81725 8.99403 7.37502C8.99403 7.92283 9.42232 8.36105 9.96017 8.38097C9.96017 8.38097 10.01 8.38097 10.0697 8.38097C10.5976 8.35109 11.006 7.91286 11.006 7.37502C11.0159 6.81725 10.5578 6.36903 9.99998 6.36903Z" fill="#0F0F0F"/>
<path d="M10 16.125C9.06522 16.125 8.11958 15.8913 7.39132 15.4341C6.66306 14.9871 6.25 14.3267 6.25 13.6256C6.25 12.9246 6.66306 12.2642 7.39132 11.807C8.85871 10.8926 11.1522 10.9028 12.6087 11.807C13.3369 12.254 13.75 12.9144 13.75 13.6155C13.75 14.3165 13.3369 14.9769 12.6087 15.4341C11.8804 15.8913 10.9348 16.125 10 16.125ZM8.29348 13.0668C8.02174 13.2294 7.86956 13.4326 7.88043 13.6155C7.88043 13.7984 8.03261 14.0016 8.29348 14.1641C9.20652 14.7331 10.7935 14.7331 11.7065 14.1641C11.9783 14.0016 12.1304 13.7984 12.1304 13.6155C12.1304 13.4326 11.9782 13.2294 11.7174 13.0668C10.8043 12.508 9.20652 12.508 8.29348 13.0668Z" fill="#0F0F0F"/>
</svg>
