<svg width="20" height="21" viewBox="0 0 20 21" fill="none" xmlns="http://www.w3.org/2000/svg">
<path d="M16.9231 4.89337H15.94C16.1284 4.51844 16.2281 4.10112 16.2308 3.67686C16.2314 3.12475 16.0698 2.58599 15.7683 2.13458C15.4668 1.68317 15.0401 1.34125 14.5469 1.15579C14.0536 0.970325 13.518 0.950413 13.0136 1.09879C12.5092 1.24716 12.0608 1.55655 11.7298 1.98445C11.7049 2.0224 10.6674 3.47248 10 4.40871C9.33169 3.47151 8.29323 2.01559 8.26369 1.97569C7.93167 1.54988 7.48293 1.24268 6.9789 1.09617C6.47488 0.949651 5.94022 0.970981 5.44813 1.15724C4.95605 1.34349 4.53061 1.68556 4.23006 2.13661C3.92951 2.58766 3.76856 3.12563 3.76923 3.67686C3.7719 4.10112 3.87165 4.51844 4.06 4.89337H3.07692C2.52631 4.89414 1.99847 5.12509 1.60913 5.53558C1.21979 5.94606 1.00073 6.50258 1 7.08309V10.4893C1 10.6829 1.07294 10.8686 1.20277 11.0054C1.33261 11.1423 1.5087 11.2192 1.69231 11.2192H1.92308V16.3286C1.86887 16.8217 1.92112 17.3213 2.07591 17.7901C2.2307 18.2589 2.48403 18.6847 2.81695 19.0357C3.14987 19.3867 3.55375 19.6538 3.9984 19.817C4.44304 19.9802 4.91693 20.0353 5.38462 19.9781H14.6154C15.0831 20.0353 15.557 19.9802 16.0016 19.817C16.4462 19.6538 16.8501 19.3867 17.1831 19.0357C17.516 18.6847 17.7693 18.2589 17.9241 17.7901C18.0789 17.3213 18.1311 16.8217 18.0769 16.3286V11.2192H18.3077C18.4913 11.2192 18.6674 11.1423 18.7972 11.0054C18.9271 10.8686 19 10.6829 19 10.4893V7.08309C18.9993 6.50258 18.7802 5.94606 18.3909 5.53558C18.0015 5.12509 17.4737 4.89414 16.9231 4.89337ZM17.6154 7.08309V9.75941H10.6923V6.35318H16.9231C17.1066 6.35344 17.2826 6.43042 17.4123 6.56725C17.5421 6.70408 17.6151 6.88958 17.6154 7.08309ZM12.8052 2.9051C12.9118 2.7653 13.0469 2.65269 13.2005 2.57567C13.3541 2.49866 13.5222 2.45923 13.6923 2.46035C13.9983 2.46035 14.2918 2.58851 14.5082 2.81665C14.7246 3.04479 14.8462 3.35422 14.8462 3.67686C14.8462 3.9995 14.7246 4.30892 14.5082 4.53706C14.2918 4.7652 13.9983 4.89337 13.6923 4.89337H11.3846C12.0095 4.01943 12.7618 2.96447 12.8052 2.9051ZM5.15385 3.67686C5.15433 3.35438 5.27606 3.04525 5.49234 2.81722C5.70862 2.58919 6.00182 2.46086 6.30769 2.46035C6.47468 2.45856 6.63993 2.49617 6.79134 2.57043C6.94276 2.64469 7.0765 2.75372 7.18277 2.88953C7.23077 2.95863 7.98862 4.01748 8.61538 4.89337H6.30769C6.00182 4.89285 5.70862 4.76452 5.49234 4.53649C5.27606 4.30846 5.15433 3.99934 5.15385 3.67686ZM2.38462 7.08309C2.38486 6.88958 2.45788 6.70408 2.58766 6.56725C2.71744 6.43042 2.89339 6.35344 3.07692 6.35318H9.30769V9.75941H2.38462V7.08309ZM3.30769 16.3286V11.2192H9.30769V18.5183H5.38462C3.92892 18.5183 3.30769 17.8633 3.30769 16.3286ZM16.6923 16.3286C16.6923 17.8633 16.0711 18.5183 14.6154 18.5183H10.6923V11.2192H16.6923V16.3286Z" fill="black"/>
</svg>
